PathFileType	4	(X/Y/Z)	/Users/itak/Documents/Research/Walk-IL/dataset/trc/00348_00011.trc
DataRate	CameraRate	NumFrames	NumMarkers	Units	OrigDataRate	OrigDataStartFrame	OrigNumFrames
100.000000	100.000000	4	56	mm	100.000000	495	660
Frame#	Time	RPSI			LPSI			STRN			T10			C7			CLAV			RBAK			LBAK			LSHO			LUPA			LAEL			LAOL			LWTS			LWPS			LFRA			LHPS			LHTS			RSHO			RUPA			RAEL			RAOL			RWTS			RWPS			RFRA			RIFD			RHTS			RHPS			RBHD			LFHD			RFHD			LBHD			LHIP			RHIP			RASI			LASI			LKNE			LTHI			LANK			LTIP			LTOE			LMT1			LMT5			LHEE			RKNE			RANK			RTIP			RTOE			RMT1			RMT5			RHEE			RTHI			L3			LIFD			*53			*54			*55			
		X1	Y1	Z1	X2	Y2	Z2	X3	Y3	Z3	X4	Y4	Z4	X5	Y5	Z5	X6	Y6	Z6	X7	Y7	Z7	X8	Y8	Z8	X9	Y9	Z9	X10	Y10	Z10	X11	Y11	Z11	X12	Y12	Z12	X13	Y13	Z13	X14	Y14	Z14	X15	Y15	Z15	X16	Y16	Z16	X17	Y17	Z17	X18	Y18	Z18	X19	Y19	Z19	X20	Y20	Z20	X21	Y21	Z21	X22	Y22	Z22	X23	Y23	Z23	X24	Y24	Z24	X25	Y25	Z25	X26	Y26	Z26	X27	Y27	Z27	X28	Y28	Z28	X29	Y29	Z29	X30	Y30	Z30	X31	Y31	Z31	X32	Y32	Z32	X33	Y33	Z33	X34	Y34	Z34	X35	Y35	Z35	X36	Y36	Z36	X37	Y37	Z37	X38	Y38	Z38	X39	Y39	Z39	X40	Y40	Z40	X41	Y41	Z41	X42	Y42	Z42	X43	Y43	Z43	X44	Y44	Z44	X45	Y45	Z45	X46	Y46	Z46	X47	Y47	Z47	X48	Y48	Z48	X49	Y49	Z49	X50	Y50	Z50	X51	Y51	Z51	X52	Y52	Z52	X53	Y53	Z53	X54	Y54	Z54	X55	Y55	Z55	X56	Y56	Z56	

496	4.95	706.4219360351562	954.40771484375	-35.33113861083984	835.49658203125	962.6864624023438	-26.00600242614746	761.0162963867188	1193.417236328125	213.7568206787109	802.3007202148438	1143.842651367188	-24.13785552978516	818.3363647460938	1385.7255859375	38.33387756347656	774.6434936523438	1321.455932617188	182.1606292724609	763.9824829101562	1252.873901367188	-33.70744705200195	918.9227905273438	1347.243530273438	46.52437973022461	951.2032470703125	1361.91552734375	142.2685546875	1034.490478515625	1253.751953125	145.9351348876953	1094.359985351562	1068.092529296875	206.8045501708984	1051.18994140625	1028.2197265625	145.4037628173828	1096.048583984375	869.6098022460938	368.4248046875	1153.181518554688	856.0928955078125	331.6511840820312	1122.854248046875	975.7747802734375	249.2585906982422	1164.918701171875	792.1351318359375	356.0029907226562	1131.859985351562	810.0415649414062	408.5536193847656	648.4959716796875	1375.915771484375	49.63872528076172	594.2372436523438	1320.065673828125	9.211672782897949	555.553466796875	1070.920043945312	-72.79118347167969	640.0374145507812	1053.214111328125	-67.18379974365234	492.3344421386719	826.2684326171875	-32.95769882202148	472.1065673828125	835.1396484375	-106.654182434082	526.6087036132812	1006.333740234375	-80.33507537841797	464.3990783691406	663.1488037109375	-86.39268493652344	452.8110046386719	729.953857421875	-55.63153457641602	454.9331665039062	753.2702026367188	-121.3161163330078	722.1309814453125	1590.479614257812	87.18641662597656	781.4874877929688	1575.861938476562	287.4231262207031	688.74169921875	1576.0126953125	245.9866790771484	863.3367919921875	1589.81982421875	120.2920608520508	937.403564453125	905.4561767578125	61.68408966064453	594.4259033203125	904.07666015625	42.60634231567383	635.8876953125	932.881103515625	147.1650085449219	873.2896118164062	924.2777709960938	182.5794219970703	928.8535766601562	447.633056640625	77.44148254394531	935.1489868164062	586.9601440429688	88.82462310791016	905.541748046875	43.56459808349609	-84.57115936279297	931.457275390625	236.9845733642578	-0.425040990114212	896.4041137695312	32.40127944946289	129.4971313476562	838.1021118164062	22.36939239501953	72.45298767089844	946.642578125	32.47360992431641	33.2518310546875	831.5352172851562	39.32329559326172	-100.376091003418	612.4267578125	473.5763244628906	248.6866455078125	701.068359375	62.71755218505859	225.9132995605469	631.03662109375	353.6817932128906	269.2200317382812	670.2816162109375	63.3192024230957	421.3187866210938	728.6617431640625	55.09123611450195	385.974609375	642.2879638671875	50.42247772216797	308.9147338867188	763.1263427734375	66.5167236328125	197.6508178710938	574.0601806640625	720.614990234375	169.0538482666016	780.3421630859375	1026.914184570312	-33.00751876831055	1122.457275390625	730.0709838867188	435.494873046875	nan	nan	nan	nan	nan	nan	nan	nan	nan	
497	4.96	706.8531494140625	953.5427856445312	-28.53531646728516	835.8790893554688	961.8054809570312	-18.56204986572266	760.0724487304688	1192.107177734375	220.8514404296875	802.5759887695312	1142.9248046875	-16.83234786987305	818.0802001953125	1384.80224609375	45.91644287109375	773.6749267578125	1320.220825195312	189.4963531494141	764.29833984375	1251.938232421875	-26.5348014831543	918.7032470703125	1346.371215820312	54.59053039550781	950.3855590820312	1360.8818359375	150.5732421875	1033.48583984375	1252.557373046875	155.0629119873047	1092.359008789062	1067.022338867188	216.8958435058594	1049.986206054688	1027.07275390625	155.0301208496094	1091.391967773438	870.3562622070312	380.3740844726562	1148.71044921875	855.7362060546875	344.3129272460938	1120.184448242188	974.8522338867188	260.3812866210938	1159.76806640625	792.1329956054688	369.7261962890625	1126.3359375	811.042236328125	421.6459655761719	648.1221313476562	1374.642333984375	56.39968109130859	594.1856689453125	1318.5390625	15.68040180206299	557.6439819335938	1069.140869140625	-66.54507446289062	641.7085571289062	1051.46484375	-60.16297149658203	495.6017456054688	823.8941650390625	-28.1291332244873	475.8281860351562	833.1114501953125	-101.8858642578125	529.1126708984375	1004.499206542969	-74.44358825683594	469.9471130371094	660.8370971679688	-83.00497436523438	457.3668212890625	727.2686767578125	-51.80835723876953	459.6339721679688	751.1663818359375	-117.3206634521484	721.8091430664062	1589.322265625	93.97463226318359	779.7227172851562	1574.921752929688	294.7012939453125	687.1942749023438	1575.067993164062	252.5527648925781	862.8095703125	1588.586669921875	128.1567077636719	937.38330078125	904.4347534179688	69.27757263183594	594.5291137695312	902.9784545898438	48.63167190551758	635.3159790039062	931.75439453125	153.4206848144531	872.6136474609375	923.0057983398438	190.0680694580078	928.1082763671875	446.9124755859375	81.83397674560547	934.4945678710938	585.9793090820312	94.54860687255859	904.9984130859375	44.37424468994141	-84.14201354980469	930.7763061523438	236.8680267333984	1.953862071037292	896.4129638671875	32.20068359375	129.7560577392578	837.9058227539062	22.29601287841797	72.63257598876953	946.4157104492188	32.69412231445312	33.4776725769043	831.0292358398438	39.98915863037109	-100.0547409057617	612.5426635742188	471.3077087402344	252.3826446533203	695.8541870117188	58.96355438232422	251.3871154785156	628.7911987304688	352.3323669433594	278.485595703125	658.8224487304688	69.41753387451172	445.3209533691406	717.9744873046875	58.2244987487793	412.3814392089844	634.2828979492188	51.44678115844727	332.74853515625	758.871337890625	60.51501846313477	225.0657348632812	573.0888671875	718.8616943359375	173.4068145751953	780.6697387695312	1025.934326171875	-25.86234283447266	1116.049560546875	731.2545776367188	449.369384765625	nan	nan	nan	nan	nan	nan	nan	nan	nan	
498	4.97	707.055908203125	952.5574340820312	-21.55072212219238	836.0469360351562	960.871337890625	-11.02484893798828	758.9850463867188	1190.7490234375	227.9966125488281	802.6217651367188	1141.938354492188	-9.518858909606934	817.612548828125	1383.814453125	53.50835418701172	772.5562133789062	1318.933959960938	196.8427124023438	764.362548828125	1250.93212890625	-19.3311824798584	918.2752075195312	1345.43310546875	62.62566375732422	949.3989868164062	1359.770385742188	158.8304748535156	1032.24755859375	1251.248901367188	164.0943145751953	1090.112670898438	1065.802612304688	226.7655639648438	1048.47509765625	1025.792846679688	164.4637756347656	1086.386474609375	870.8720092773438	391.9641418457031	1143.916870117188	855.2280883789062	356.6378479003906	1117.230834960938	973.7930908203125	271.2087097167969	1154.203247070312	791.8903198242188	383.025390625	1120.375	811.7374877929688	434.3193054199219	647.5494384765625	1373.320190429688	63.22709655761719	593.8919067382812	1316.932373046875	22.25844764709473	559.4572143554688	1067.26171875	-60.05760955810547	643.100341796875	1049.616821289062	-52.8990592956543	498.8602294921875	821.3887329101562	-22.8236255645752	479.3408813476562	830.9163208007812	-96.58891296386719	531.3773193359375	1002.547241210938	-68.27541351318359	475.6678771972656	658.3587646484375	-78.9649658203125	462.01171875	724.417724609375	-47.36632919311523	464.1997985839844	748.8706665039062	-112.7297897338867	721.3409423828125	1588.085205078125	100.8098983764648	777.8435668945312	1573.946533203125	301.9879455566406	685.5297241210938	1574.097045898438	259.1422729492188	862.1231689453125	1587.287231445312	135.9971466064453	937.2044067382812	903.3948974609375	76.94712066650391	594.4771118164062	901.7245483398438	54.91558456420898	634.6824951171875	930.5278930664062	159.8960723876953	871.8727416992188	921.7642822265625	197.6382293701172	927.3020629882812	446.2950744628906	86.26472473144531	933.7923583984375	585.0345458984375	100.382682800293	904.4373779296875	45.24429702758789	-83.67796325683594	930.0751342773438	236.8271331787109	4.362457752227783	896.4420776367188	32.02294158935547	130.0091400146484	837.728515625	22.25628662109375	72.82386016845703	946.2045288085938	32.93951797485352	33.71278762817383	830.513427734375	40.79380416870117	-99.70954132080078	612.6239013671875	468.74609375	256.1045532226562	689.8439331054688	56.00831604003906	276.3179321289062	626.3846435546875	351.072998046875	287.5065307617188	647.0700073242188	76.21689605712891	468.173583984375	706.809326171875	62.15179061889648	437.7110290527344	625.7200927734375	53.13262176513672	355.8233032226562	753.7265014648438	55.45291519165039	251.9481353759766	572.1876220703125	716.8566284179688	177.8961029052734	780.72119140625	1024.832641601562	-18.55152893066406	1109.0947265625	732.1665649414062	462.6996459960938	nan	nan	nan	nan	nan	nan	nan	nan	nan	
499	4.98	707.0331420898438	951.4500732421875	-14.37870597839355	835.9998168945312	959.893798828125	-3.395265817642212	757.7471923828125	1189.359252929688	235.1898345947266	802.4314575195312	1140.8837890625	-2.19314980506897	816.9349365234375	1382.763427734375	61.10208892822266	771.283203125	1317.614379882812	204.1950378417969	764.1704711914062	1249.855346679688	-12.10571384429932	917.6359252929688	1344.428100585938	70.62575531005859	948.2528076171875	1358.5869140625	167.0324554443359	1030.79150390625	1249.839477539062	172.9977416992188	1087.642333984375	1064.437744140625	236.4132537841797	1046.628051757812	1024.340454101562	173.7648773193359	1081.062255859375	871.1581420898438	403.1961669921875	1138.829833984375	854.58251953125	368.6305541992188	1113.999389648438	972.6082763671875	281.7483520507812	1148.2578125	791.4256591796875	395.8966979980469	1114.002685546875	812.1343383789062	446.5753784179688	646.775634765625	1371.958862304688	70.09804534912109	593.363525390625	1315.262817382812	28.91749572753906	560.9893188476562	1065.296264648438	-53.35293960571289	644.2057495117188	1047.684326171875	-45.41141891479492	502.0796813964844	818.782470703125	-17.04269409179688	482.6147766113281	828.5654296875	-90.76840209960938	533.3876953125	1000.485595703125	-61.84810256958008	481.4874572753906	655.7389526367188	-74.24161529541016	466.7029724121094	721.4338989257812	-42.28708267211914	468.5875244140625	746.3860473632812	-107.5274276733398	720.7225341796875	1586.787963867188	107.6919097900391	775.8460083007812	1572.9365234375	309.2915954589844	683.75244140625	1573.102294921875	265.7592163085938	861.2730102539062	1585.939331054688	143.8177032470703	936.8792114257812	902.3745727539062	84.70113372802734	594.2698364257812	900.3095092773438	61.4635009765625	633.9841918945312	929.1934814453125	166.6088104248047	871.0546875	920.5662841796875	205.3045349121094	926.4398803710938	445.7781066894531	90.76554107666016	933.0569458007812	584.140625	106.3357620239258	903.8901977539062	46.18505859375	-83.18125152587891	929.3818359375	236.8876495361328	6.802479267120361	896.4835205078125	31.86472320556641	130.2537689208984	837.5719604492188	22.24677848815918	73.02296447753906	946.006103515625	33.21466827392578	33.97006225585938	830.0100708007812	41.75913238525391	-99.34004211425781	612.5892944335938	465.9375305175781	259.9729919433594	683.0632934570312	53.85261917114258	300.5302124023438	623.8168334960938	349.9482727050781	296.2939758300781	635.1406860351562	83.61509704589844	489.7829284667969	695.3161010742188	66.84165191650391	461.8422241210938	616.6646118164062	55.44915390014648	378.0423889160156	747.708740234375	51.33186721801758	278.0756530761719	571.3748779296875	714.6051025390625	182.5635375976562	780.5094604492188	1023.627807617188	-11.09156227111816	1101.62548828125	732.824951171875	475.4957275390625	nan	nan	nan	nan	nan	nan	nan	nan	nan	
